<?xml version="1.0" encoding="UTF-8"?>
<svg xmlns="http://www.w3.org/2000/svg" version="1.1" viewBox="0 0 229.48 152.57">
  <defs>
    <style>
      .cls-1 {
        fill: #404040;
      }

      .cls-2 {
        fill: #f1f1f1;
      }

      .cls-3 {
        fill: #3f3f3f;
      }

      .cls-4 {
        fill: #070707;
      }

      .cls-5 {
        fill: #42ab69;
      }

      .cls-6 {
        fill: #111;
      }

      .cls-7 {
        fill: #909090;
      }

      .cls-8 {
        fill: #050505;
      }

      .cls-9 {
        fill: #010101;
      }

      .cls-10 {
        fill: #00953f;
      }

      .cls-11 {
        fill: #d6d6d6;
      }

      .cls-12 {
        fill: #414141;
      }

      .cls-13 {
        fill: #393939;
      }

      .cls-14 {
        fill: #474747;
      }

      .cls-15 {
        fill: gray;
      }

      .cls-16 {
        fill: #ee6062;
      }

      .cls-17 {
        fill: #545454;
      }

      .cls-18 {
        fill: #363636;
      }

      .cls-19 {
        fill: #5b5b5b;
      }

      .cls-20 {
        fill: #777;
      }

      .cls-21 {
        fill: #9a9a9a;
      }

      .cls-22 {
        fill: #828282;
      }

      .cls-23 {
        fill: #767676;
      }

      .cls-24 {
        fill: #f17273;
      }

      .cls-25 {
        fill: #030303;
      }

      .cls-26 {
        fill: #8e8e8e;
      }

      .cls-27 {
        fill: #a1a1a1;
      }

      .cls-28 {
        fill: #cecece;
      }

      .cls-29 {
        fill: #2c2c2c;
      }

      .cls-30 {
        fill: #171717;
      }

      .cls-31 {
        fill: #7ac08f;
      }

      .cls-32 {
        fill: #5a5a5a;
      }

      .cls-33 {
        fill: #1e1e1e;
      }

      .cls-34 {
        fill: #0d0d0d;
      }

      .cls-35 {
        fill: #aaa;
      }

      .cls-36 {
        fill: #d4d4d4;
      }

      .cls-37 {
        fill: #1d1d1d;
      }

      .cls-38 {
        fill: #3e3e3e;
      }

      .cls-39 {
        fill: #212121;
      }

      .cls-40 {
        fill: #525252;
      }

      .cls-41 {
        fill: #b1b1b1;
      }

      .cls-42 {
        fill: #dedede;
      }

      .cls-43 {
        fill: #373737;
      }

      .cls-44 {
        fill: #696969;
      }

      .cls-45 {
        fill: #272727;
      }

      .cls-46 {
        fill: #c6c6c6;
      }

      .cls-47 {
        fill: #303030;
      }

      .cls-48 {
        fill: #4f4f4f;
      }

      .cls-49 {
        fill: #a6a6a6;
      }

      .cls-50 {
        fill: #929292;
      }

      .cls-51 {
        fill: #797979;
      }

      .cls-52 {
        fill: #636363;
      }

      .cls-53 {
        fill: #505050;
      }

      .cls-54 {
        fill: #020202;
      }

      .cls-55 {
        fill: #b7b7b7;
      }

      .cls-56 {
        fill: #9b9b9b;
      }

      .cls-57 {
        fill: #0b0b0b;
      }

      .cls-58 {
        fill: #121212;
      }

      .cls-59 {
        fill: #262626;
      }

      .cls-60 {
        fill: #fce2e2;
      }

      .cls-61 {
        fill: #343434;
      }

      .cls-62 {
        fill: #f9f9f9;
      }

      .cls-63 {
        fill: #f0f0f0;
      }

      .cls-64 {
        fill: #666;
      }

      .cls-65 {
        fill: #040404;
      }

      .cls-66 {
        fill: #fafafa;
      }

      .cls-67 {
        fill: #080808;
      }

      .cls-68 {
        fill: #e9e9e9;
      }

      .cls-69 {
        fill: #101010;
      }

      .cls-70 {
        fill: silver;
      }

      .cls-71 {
        fill: #7e7e7e;
      }

      .cls-72 {
        fill: #2e2e2e;
      }

      .cls-73 {
        fill: #282828;
      }

      .cls-74 {
        fill: #858585;
      }

      .cls-75 {
        fill: #fefefe;
      }

      .cls-76 {
        fill: #0c0c0c;
      }

      .cls-77 {
        fill: #acacac;
      }

      .cls-78 {
        fill: #1f1f1f;
      }

      .cls-79 {
        fill: #f2f2f2;
      }

      .cls-80 {
        fill: #2a2a2a;
      }

      .cls-81 {
        fill: #424242;
      }

      .cls-82 {
        fill: #626262;
      }

      .cls-83 {
        fill: #949494;
      }

      .cls-84 {
        fill: #838383;
      }

      .cls-85 {
        fill: #88c69b;
      }

      .cls-86 {
        fill: #bfbfbf;
      }

      .cls-87 {
        fill: #131313;
      }

      .cls-88 {
        fill: #585858;
      }

      .cls-89 {
        fill: #f3f3f3;
      }

      .cls-90 {
        fill: #0a0a0a;
      }

      .cls-91 {
        fill: #fbfbfb;
      }

      .cls-92 {
        fill: #252525;
      }

      .cls-93 {
        fill: #737373;
      }

      .cls-94 {
        fill: #9e9e9e;
      }

      .cls-95 {
        fill: #6a6a6a;
      }

      .cls-96 {
        fill: #a4a4a4;
      }

      .cls-97 {
        fill: #333;
      }

      .cls-98 {
        fill: #535353;
      }

      .cls-99 {
        fill: #afafaf;
      }

      .cls-100 {
        fill: #e20713;
      }

      .cls-101 {
        fill: #090909;
      }

      .cls-102 {
        fill: #888;
      }

      .cls-103 {
        fill: #b6b6b6;
      }

      .cls-104 {
        fill: #0f0f0f;
      }

      .cls-105 {
        fill: #161616;
      }

      .cls-106 {
        fill: #181818;
      }

      .cls-107 {
        fill: #434343;
      }

      .cls-108 {
        fill: #fdfdfd;
      }
    </style>
  </defs>
  <!-- Generator: Adobe Illustrator 28.7.1, SVG Export Plug-In . SVG Version: 1.2.0 Build 142)  -->
  <g>
    <g id="Ebene_1">
      <g>
        <path class="cls-75" d="M45.64,125.94c0-32.75,0-65.49-.02-98.24,0-.9.2-1.1,1.1-1.1,45.35.03,90.69.03,136.04,0,.9,0,1.1.2,1.1,1.1-.03,32.39-.03,64.77,0,97.16,0,.9-.2,1.1-1.1,1.1-45.71-.03-91.41-.02-137.12-.02Z"/>
        <path class="cls-10" d="M109.72,48.71c-.37,1.96-1.51,3.73-1.51,5.79,0,.35-.25.68-.61.84-1.78.81-3.67,1.15-5.61,1.21-.33.01-.38-.21-.41-.46-.02-.2-.01-.53-.11-.57-2.07-.87-.52-2.31-.3-3.24.97-3.99,2.54-7.83,3.27-11.89.05-.27.17-.53.26-.79.44-.16-.12-.57.19-.76.82.04,1.05-.54,1.36-1.15.18-.36.39-1.1.88-.91.59.23,1.43.45,1.36,1.42,0,.11.05.22.08.33.6-.22.55-.83.76-1.27,2.16,1.26,2.94,2.87,2.53,5.17-.57.22-.16.86-.51,1.17-.15-.11-.3-.23-.59-.45.38,1.6-.2,2.94-.61,4.32-.48.3-.35.8-.41,1.24Z"/>
        <path class="cls-100" d="M126.94,43.6c-.28.08-.03.58-.44.56-.28.28.41.64-.08.91-.32.96-.44,1.98-.93,2.87-.28.64-.59,1.27-.63,1.98-.14,1.08-.95,1.92-1.04,3.02,0,.11-.13.2-.16.32-.21.85.46,2.06-.43,2.52-1.47.76-3.11,1.11-4.79,1.33-1.44.18-1.82-1.04-2.42-1.68-.35-.38.24-1.7.5-2.57,1.23-4.18,2.66-8.3,3.52-12.58.08-.39-.11-1.21.92-.95.42.1.38-.71.67-1.01.32-.32.23-1.17.91-.97.61.18,1.33.45,1.25,1.36-.01.16.01.32.2.39.71-.04.31-1.32,1.06-1.09.51.15,1.02.73,1.28,1.16.46.78,1.47,1.41,1.1,2.57-.1.64-.23,1.27-.48,1.88Z"/>
        <path class="cls-9" d="M106.13,80.41c-1.08.87-2.26,1.59-3.58,1.96-.78.22-.77.6-.63,1.21.25,1.05.28,2.13.39,3.2.09.9-.37,1.57-.66,2.33-.16.42-.57.35-.93.36-.52,0-.36-.39-.45-.66-.5-1.67-.61-3.38-.66-5.11-.01-.36-.71-.67-1.22-.59-1.38.22-2.78.23-4.16.14-.67-.04-.92.2-1.01.81-.27,1.96-1.41,3.6-1.99,5.47-.29-.92.11-1.8.35-2.59.3-.98.46-2,.85-2.96.3-.73.11-1.16-.71-1.34-.38-.09-.87-.18-1.02-.68.2-.25.48-.21.67-.14,1.27.47,1.66-.08,1.91-1.3,1.05-5.03,2.63-9.91,4.58-14.67.26-.63.42-1.27.42-1.97,0-.67.25-.97.97-.53.47.29.8.6.92,1.15.18.9.33,1.8.33,2.73,0,.71-.35,1.43.42,2.06.42.35-.04.97-.11,1.47-.17.1-.38-.04-.55.07-.16.52-.07,1.08-.3,1.57-.09.16-.24.2-.41.18-.08.06-.16-.23-.23,0-.07.23-.13.43-.44.38-.09-.09-.15-.19-.19-.31-.16-.75-.08-1.5-.07-2.25-.06-1.07-.04-2.14,0-3.3-1.28,4.51-3.01,8.8-4.06,13.31-.34,1.47-.3,1.65,1.22,1.53,3.36-.25,3.24.12,2.92-3.46-.11-1.22-.39-2.43-.34-3.67.02-.43-.02-.89.33-1.23.22-.17.5-.22.75-.32.37-.14.41-.51.55-.81.01-.11.05-.21.1-.3.09-.06.19-.1.3-.12.18,0,.33.06.45.18.53,2.54.5,5.14.75,7.71.19,1.91.26,1.96,1.99,1.16.87-.4,1.68-.9,2.45-1.47q.39.16.09.81Z"/>
        <path class="cls-9" d="M100.56,98.34c-1.86-.04-3.72-.09-5.58-.13-.82-.01-1.61.13-2.42.37-1.07.31-2.22.16-3.24-.45-.45.26-.95.21-1.45.21-.14,0-.29-.01-.43-.03-2.41-.61-4.85-.27-7.28-.23-2.51.03-5,.99-7.52.45-.01-.12-.03-.25-.04-.37.84-.25,1.67-.55,2.52-.75,2.41-.55,4.85-.77,7.32-.68,3.02.11,6.04-.07,9.06-.16,1.49-.05,3.01.15,4.52.09,6.84-.26,13.68.11,20.52.04,1.15-.01,2.3.14,3.45.22.74.21,1.49.12,2.23.04.01.8-.05.9-.94,1.02-1.54.21-3.08.22-4.64.18-2.9-.08-5.81-.09-8.71-.07-1.66.01-3.31-.39-4.97-.03-.77.4-1.63-.05-2.41.27Z"/>
        <path class="cls-9" d="M133.51,84.46c-.81,1.52-1.45,3.12-2.48,4.52-.21.65-.2,1.3,0,1.95-.08,2.75-.14,5.5-.24,8.25-.02.47-.12.96-.31,1.39-.35.83-1.1,1.08-1.94,1.17-.87.09-.89-.65-1.13-1.15-.73-1.56-.47-3.23-.33-4.82.15-1.69.69-3.36,1.44-4.9.45-.92.71-1.84.57-2.87-.2-1.43.32-2.82.31-4.25,0-.5,0-.93-.25-1.36-.03-.76.47-1.58-.24-2.27-.09.16-.18.32-.27.47-.27.14-.35-.08-.45-.24.44-2.01.94-3.99,1.72-5.9.24-.58.31-1.23.45-1.85.11-.48.43-.69.87-.59.47.11.26.53.22.8-.53,3.5-.81,7.01-.73,10.54.03,1.34.11,2.69.09,4.24,1.12-1.08,1.38-2.52,2.38-3.44.17.04.26.15.32.3Z"/>
        <path class="cls-54" d="M151.23,83.48c.71-2.09,1.2-4.2,1.55-6.39.23-1.49,1.17-2.92,2.17-4.21,1.1-1.43,2.59-1.22,4-1.09.95.09,1.13,1.14,1.34,1.94.54,2.14.62,4.33.53,6.53-.02.47,0,.94,0,1.44.91-.05,1.59-.6,2.36-.88.27-.05.36.06.31.32-.42.57-1.11.9-1.69,1.02-1.06.22-1.31.79-1.35,1.72-.05,1-.35,1.95-.82,2.84-.66,1.25-1.48,2.27-3.07,2.27-1.68,0-2.48-1.21-3.08-2.45-.52-1.08-.98-2.25-.84-3.53-.13-.36-.14-.71-.02-1.08-.2.16.02.48-.19.63-.74.07-.52.75-.74,1.15-.25.12-.35-.05-.44-.24Z"/>
        <path class="cls-54" d="M133.51,84.46c-.11-.1-.21-.2-.32-.3.63-1.48,1.66-2.73,2.27-4.23.59-1.44,1.08-2.9,1.54-4.38.36-1.16,1.05-2.12,1.67-3.12.28-.45.9-.63,1.5-.48.77.19,1.26.68,1.43,1.43.27,1.21.32,2.44.03,3.67-.47,1.97-1.2,3.83-2.37,5.5-.35.11-.42-.15-.51-.38.07-1.1.7-2,1.11-2.97.8-1.89.79-3.81.6-5.91-.75.29-.74.93-1.1,1.25-.51.06-.73.4-.82.86-.08.25-.2.49-.33.72-.12.23-.16.49-.26.73-.12.14,0,.37-.16.49.18-.07.06-.37.29-.41.18.04.28.16.35.32-.02,1.57-.46,3.1-.5,4.68,0,.44-.33.97.37,1.18.23.14.37.3.16.56-.85,1.3-.51,2.99.79,3.81.61.38,1.2.26,1.8-.08.76-.42,1.12-1.22,1.74-1.77.42,0,.4.2.25.49-1.53,2.61-3.18,3.12-4.83,2.13-1.54-.92-2.17-2.52-2.39-4.26-.05-.39-.02-.79-.03-1.19-.31-.45.35-1.03-.2-1.45-.7,1.04-1.4,2.07-2.09,3.11Z"/>
        <path class="cls-54" d="M59.99,74.57c.75-3.35,1.32-6.76,3.6-9.54.35-.43.73-.79,1.24-1.03.12.17,0,.38.1.56-2.29,2.36-3.05,5.39-3.7,8.47-1.01,4.79-1.44,9.65-1.94,14.51-.03.33.18.95-.41.93-.56-.02-.55-.59-.55-1.03.02-2.74.05-5.48.06-8.22.01-4.01,0-8.02.02-12.03,0-.67.13-1.35.23-2.02.04-.29-.02-.7.49-.65.38.04.55.32.61.65.04.23.06.48.02.71-.4,2.26-.21,4.52-.16,6.79.24.64-.02,1.31.15,1.95.04.15-.04,0,.06.09.14.13.11-.12.2-.15Z"/>
        <path class="cls-54" d="M64.92,64.57c-.33-.14-.12-.36-.1-.56,2.44-1.45,4.12-.66,4.6,2.13.57,3.32.14,6.59-.3,9.87-.37.33-.25.84-.45,1.23-.21,2.99-.65,5.96-1.93,8.69-.86,1.82-2.08,3.45-4.39,3.6-.99.07-1.38-.37-1.08-1.52.41.49.76,1.08,1.4.85.94-.33,1.81-.81,2.33-1.74,1.17-2.1,1.6-4.39,1.89-6.74.52-4.24.94-8.49.99-12.77,0-.83-.09-1.68-.24-2.5-.26-1.41-.64-1.57-1.96-.91-.25.12-.5.24-.75.36Z"/>
        <path class="cls-54" d="M148.37,72.04c-1.15,4.95-.84,9.94-.35,14.93.04.45,0,1.14.44,1.26.6.16.74-.57,1.03-.97.07-.09.16-.16.25-.24.18.19.15.39.05.6-.1,1.08-.83,1.65-1.78,1.74-.96.09-1.34-.75-1.56-1.53-.45-1.57-.64-3.18-.73-4.81.08-.4.33-.76.37-1.17-.11-.72.62-1.29.33-2.04-.06-.3-.05-.59.01-.89.11-.36.13-.72.12-1.1.01-.58-.04-1.16.08-1.73.21-.92.28-1.84-.03-2.76-.37-.5-.43-1.04-.21-1.62.32-1.69.59-3.39.97-5.06.26-1.12.6-2.23,1.04-3.29.42-1.01,1.14-1.16,1.87-.55-.03.05-.05.09-.08.14-.07.08-.16.16-.24.22-.95,1.92-1.19,4.02-1.56,6.09-.05.31-.03.64-.11.95-.14.46-.22.92.03,1.37.06.15.13.29.05.46Z"/>
        <path class="cls-54" d="M77.82,85.22c-.19,1.25-.81,2.31-1.48,3.34-.46.7-1.48.61-2.25-.17-1.03-1.04-1.5-2.38-1.55-3.77-.11-3.28-.32-6.58,1.21-9.69.89-1.82,2.51-2.94,4.27-2.68-.19.67-.88.05-1.17.46-1.08.94-1.37,2.27-1.74,3.56-.95,3.38-.91,6.8-.39,10.24.04.23.14.45.23.67.16.41.36.93.82.92.39-.01.5-.56.65-.92.39-.91.77-1.83,1.16-2.74.55.1.3.47.25.77Z"/>
        <path class="cls-9" d="M119.76,87.75c-.46.66-.78,1.53-1.86,1.3-1.4-.29-1.85-1.46-2.16-2.6-.81-3.01-.61-6.07-.21-9.13.19-1.42.35-2.84.49-4.26.08-.79-.27-.78-.79-.37q-.33-.11-.06-.58c.4-.66,1.03-.71,1.65-.48.63.24.8.82.82,1.47.07,2.31-.38,4.59-.42,6.89-.04,2.38-.27,4.77.4,7.11.41,1.44.7,1.51,1.73.47.24-.17.4-.18.4.18Z"/>
        <path class="cls-54" d="M78.47,81c.95-2.79.98-5.79,2.02-8.56.1-.26,0-.75.48-.66.36.07.41.45.41.78,0,.44,0,.88,0,1.31-.35,1.09-.25,2.23-.48,3.34-.03.33-.39.66-.02,1-.13,1.62-.27,3.24-.39,4.86-.09,1.16.04,2.3.35,3.42.5,1.76.72,1.82,1.96.57.25-.04.37.05.3.32-.22,1-.9,1.44-1.85,1.49-.99.05-1.49-.58-1.74-1.43-.22-.75-.57-1.47-.52-2.28-.27-.92.06-1.91-.34-2.81-.08-.44-.33-.87-.17-1.34Z"/>
        <path class="cls-25" d="M144.75,97.84c-2.28.07-4.74-.09-7.2.15-.37.04-1.11.1-1.15-.29-.07-.63.65-.91,1.13-.97,1.95-.22,3.88-.59,5.87-.52,2.86.11,5.71.61,8.59.37.44-.04.76.2,1.03.51.15.17.39.34.29.61-.11.31-.4.14-.62.18-2.59.42-5.18.15-7.95-.06Z"/>
        <path class="cls-54" d="M109.69,82.74c.25-.55.5-1.1.75-1.65.22,0,.4.03.26.32.09,1.57-.91,2.88-1.06,4.39-.05.51-.13,1.03-.23,1.54-.08.39-.2.82-.73.78-.49-.04-.48-.45-.52-.81-.05-.47-.1-.95-.14-1.43-.23-1.44-.05-2.88-.1-4.32.3-1.39.02-2.76-.15-4.13.71-1.42.7-3,.98-4.51.05-.27-.29-.73.2-.78.5-.05.79.3.79.83,0,1.19.04,2.39,0,3.58-.07,1.75-.2,3.5-.31,5.25-.13.33-.09.67-.02,1,0,.03-.08.31.15.13.06-.05.09-.12.15-.17Z"/>
        <path class="cls-8" d="M120.44,85.39c.31-1.56,1.11-2.99,1.27-4.58.24-2.4,1.26-4.54,2.29-6.66.39-.79,1.01-1.49,1.61-2.15.41-.45,1.75-.2,3.34.61-2.06,0-3.18.96-3.88,2.49-.38.14,0,.54-.23.72-.08.16-.16.32-.23.48-.22.12-.46.2-.56.47-.34.62-.42,1.31-.65,1.96-.09.26-.17.52-.18.8-.02.29-.06.58-.12.86-.16.52-.38,1.02-.34,1.58,0,.75,0,1.5,0,2.25-.02.4.04.79.16,1.17.05.25.15.49.33.68.12.17.15.38.23.57.12.51.31.97.81,1.21.51.55.97.36,1.42-.08.41-.03.49.14.31.48-.8,1.09-1.87,1.16-2.76.21-1.13-1.21-1.39-2.75-1.64-4.35-.66.39-.49,1.12-.86,1.57-.16-.03-.26-.13-.31-.28Z"/>
        <path class="cls-65" d="M95.54,111.24c-.4.04-.79.05-.72.66.04.42.12.89-.17,1.28-.29.39-.67.83-1.15.74-.6-.11-.37-.74-.31-1.11.33-2.14.11-4.3.33-6.45.05-.52.16-1.12-.65-1.45.94-.17,1.5.03,1.73.84,0,.81.27,1.5.89,2.04-.03.98-.23,1.96-.02,2.94.07.16.12.33.07.5Z"/>
        <path class="cls-67" d="M95.54,111.24c-.08-.06-.16-.12-.24-.18-.08-.24.08-.37.24-.48,1.53-1.02,1.62-2.48,1.37-4.16-.82.21-.72,1.34-1.58,1.34-1.09-.37-.69-1.27-.73-2.02.13.36.26.71.42,1.15.37-.53.66-1.04,1.04-1.47.74-.82,1.72-.75,2.31.13,1.5,2.22-.13,5.49-2.83,5.68Z"/>
        <path class="cls-4" d="M116.64,110.8c-.71,1.01-.5,1.7.67,2.15.25-.11.32,0,.3.24-1.35.78-2.02.67-2.55-.43-.21-.49-.61-.91-.63-1.48-.02-.33-.1-.66.05-.98.09-.75.28-1.47.91-1.97.63-.5,1.29-.76,2-.11.06.06.08.13.07.19-.01.07-.02.1-.04.1-.42.55-1.07,1-.8,1.84.06.14.14.28.04.44Z"/>
        <path class="cls-4" d="M102.58,112.04c.11.55-.31.9-.58,1.24-.55.68-1.27.54-1.71-.24-.32-.57-.37-1.17-.3-1.83.09-.82.06-1.66.1-2.49.01-.27-.44-.59.04-.81.34-.15.69-.06,1,.17.5.37.65.88.61,1.46-.04.67-.12,1.34-.15,2.01-.02.37-.26.88.14,1.09.5.27.51-.48.87-.6h-.03Z"/>
        <path class="cls-67" d="M106.32,111.05c-.31.48-.63.97-.94,1.45-.23.29-.05.44.15.66.22.24.13.41-.22.33-.66-.12-1.24.74-1.97.09-.34-.3-.52-.52-.11-.79.55-.37.68-1.06,1.18-1.45.33-.28-.12-.73.22-1.01h.02c.23-.18.56-.21.77-.44.21-.23.14-.45-.05-.65-.06-.09-.06-.19.01-.27.29-.1.59-.15.8-.44.21-.28.39-.76.9-.4.42.3.25.68.14,1.05-.04.15-.12.29-.18.43-.11.55-.16,1.12-.73,1.43Z"/>
        <path class="cls-101" d="M131.5,109.02c-.37,1.3-.29,2.62-.19,3.94.16.21.32.41.19.7-1.39.44-1.38-.74-1.75-1.51-.52.04-.38.78-.88.83-.14.08-.23.04-.28-.1.48-1.25,1.01-2.48,1.14-3.84.05-.55.28-1.07.88-1.09.65-.02.76.57.89,1.07Z"/>
        <path class="cls-101" d="M110.83,113.51c-.38-.07-.68.16-1.01.29-.51.2-.91-.11-1.15-.42-.3-.4.16-.61.46-.77.27-.14.16-.42.3-.6.53-.35.81-.88,1.07-1.42.18-.19.31-.43.49-.63.23-.36.56-.67.7-1.09.04-.09.08-.19.13-.28.23-.24.22-.85.81-.52.4.22.37.56.26.92-.09.3-.22.59-.32.88-.2.29.01.8-.48.95-.39.65-.78,1.29-1.16,1.94-.31.37.53.4.22.77-.11.04-.21.03-.31-.01Z"/>
        <path class="cls-67" d="M128.6,112.95c.09,0,.19.02.28.03.04.67-.55.76-.94.81-.42.06-.78-.33-.97-.7-.16-.3-.19-.67-.27-1.01-.26-.43.47-.82.04-1.25.23-1.98,1.14-2.9,2.81-2.85.26.08.5.31.26.5-1.57,1.2-1.35,2.84-1.2,4.48Z"/>
        <path class="cls-90" d="M125.89,113c-.69.81-1.36.96-2.02-.04-.34-.52.07-1.14-.25-1.66h0c-.14-.75.23-1.45.21-2.19.17-.44-.28-1.27.63-1.22.79.05.9.67.86,1.38-.05,1.06,0,2.12,0,3.18.04.33.38.36.56.54Z"/>
        <path class="cls-4" d="M120.5,108.69c.31-.21.53-.66,1.01-.41.43.22.45.63.43,1.03-.05.79-.12,1.58-.17,2.38-.03.46-.1.94.36,1.27.14-.09.26-.07.37.04-.76.99-1.37.96-1.9-.11-.49-.99-.36-2-.09-3.02.18-.32-.13-.59-.11-.89,0-.11.03-.2.1-.29Z"/>
        <path class="cls-89" d="M128.6,112.95c-.86-1.48-.41-3.54.99-4.59.2-.15-.05-.26-.05-.39,1.74-.29,1.86-.23,1.96,1.04-.21-.4-.26-1.01-.88-.96-.59.05-.44.65-.56,1.03-.43,1.31-.2,2.87-1.46,3.86Z"/>
        <path class="cls-58" d="M143.05,86.12c-.02-.19-.05-.38-.25-.49,1.37-2.43,2.23-5.05,3.09-7.68.36-.33-.05-.86.32-1.21.56.16.42.67.54,1.05-.03.18-.09.35-.11.53-.07.57-.26,1.12-.31,1.69-.09.2-.26.35-.38.53-.17.26-.26.57-.5.79-.66,1.67-1.21,3.39-2.41,4.8Z"/>
        <path class="cls-105" d="M110.7,81.41c-.09-.11-.18-.22-.26-.32,1.13-3.23,2.34-6.42,4.74-8.97.05.19-.2.41.06.58-1.61,2.49-3.06,5.08-4.01,7.9-.12.35-.17.66-.53.81Z"/>
        <path class="cls-105" d="M126,88.24c-.02-.21-.08-.4-.31-.48,1.16-2.35,1.72-4.91,2.51-7.4.15.08.3.16.45.24-.36,1.41-.79,2.81-1.07,4.24-.25,1.28-.83,2.37-1.59,3.4Z"/>
        <path class="cls-33" d="M150.52,64.59c-.45,2.09-.76,4.22-1.7,6.18-.38.06-.42-.22-.48-.48.27-1.99.99-3.86,1.4-5.82.28-.51.06-1.17.49-1.63l.05-.02c.07.07.15.14.22.22.15.52.14,1.03,0,1.55Z"/>
        <path class="cls-104" d="M102.39,104.91c.02.64-1.68,2.18-2.26,2.14-.5-.04-.34-.3-.16-.56.4-.59.79-1.18,1.2-1.76.17-.24.04-.82.62-.64.44.14.6.49.59.82Z"/>
        <path class="cls-78" d="M111.82,108.59c.01.11.03.21.04.32-.18.35-.53.55-.76.86-.1.06-.21.1-.33.12-.42.06-.84.06-1.25-.03-.26-.06-.4-.27-.54-.47-.24-.19-.29-.46-.28-.74,0-.41-.15-1,.39-1.08.37-.05.47.46.62.85.54,1.34,1.38.34,2.11.17Z"/>
        <path class="cls-78" d="M83.1,87.38c-.1-.11-.2-.21-.3-.32.7-1.33,1.13-2.79,1.96-4.06.22-.01.36.04.25.3-.32,1.51-.93,2.88-1.91,4.07Z"/>
        <path class="cls-78" d="M107.76,77.43c.85,1.24.59,2.57.28,3.9-.28-.56-.06-1.15-.13-1.72-.03-.23.12-.63-.39-.46-.46.42-.92.85-1.38,1.27-.1-.26.26-.58-.09-.81.68-.64,1.2-1.41,1.72-2.17Z"/>
        <path class="cls-6" d="M125.59,106.31c0,.48-.22.66-.67.64-.9-.04-.98-.75-1.14-1.38-.11-.45.28-.46.5-.37.55.22,1.25.32,1.31,1.11Z"/>
        <path class="cls-92" d="M146.63,77.92c-.09-.31-.19-.63-.3-1-.29.35,0,.84-.43,1.04.11-.8-.09-1.62.22-2.4.41-.22-.09-1.07.53-.99.69.08.23.78.35,1.18.03.12-.04.23-.09.34,0,.63,0,1.25-.01,1.88-.1.09-.19.07-.27-.04Z"/>
        <path class="cls-80" d="M105.39,108.97v.06c.1.1.12.22.05.36-.11.09-.23.13-.37.11-.57-.09-1.18.19-1.73-.14-.1-.22-.24-.42-.29-.65-.09-.45-.07-1.02.39-1.12.4-.09.66.33.7.84.07.87.72.62,1.25.54Z"/>
        <path class="cls-78" d="M78.47,81c.17.35.34.7.51,1.05-.21.29-.15.71-.44.96-.24.73-.48,1.47-.73,2.2-.1-.25.04-.59-.25-.77.24-1.16.44-2.34.91-3.44Z"/>
        <path class="cls-30" d="M149.8,87.62c-.02-.2-.03-.4-.05-.6.49-1.18.99-2.36,1.48-3.54.15.08.29.16.44.24-.2,1.51-1.1,2.68-1.87,3.91Z"/>
        <path class="cls-51" d="M80.18,98.09c.46-.53,1.05-.18,1.56-.19,1.96-.02,3.93-.14,5.88.22-.07.65-.7.13-.94.45-.98-.79-2.16-.43-3.23-.42-1.09,0-2.18.01-3.27-.06Z"/>
        <path class="cls-36" d="M107.51,79.14c.02-.28.07-.53.53-.61v2.79c0,1.52-.02,3.04-.03,4.56-.5-1.58-.14-3.21-.26-4.81-.05-.64.29-1.34-.24-1.93Z"/>
        <path class="cls-39" d="M146.91,76.07c-.08-.44.11-.93-.17-1.35-.49.13-.2.73-.62.83.03-.7.06-1.41.09-2.11.04-.08.13-.15.16-.12.31.33.42.04.57-.17.31.98.35,1.95-.03,2.92Z"/>
        <path class="cls-45" d="M163.48,81.14c-.1-.11-.2-.21-.31-.32.5-.56,1.01-1.11,1.51-1.67.31-.11.56-.14.46.33-.38.73-.89,1.33-1.67,1.66Z"/>
        <path class="cls-56" d="M80.66,77.48c.47-1.15-.06-2.51.72-3.6-.1,1.29.1,2.63-.54,3.84-.18.01-.3-.02-.18-.24Z"/>
        <path class="cls-38" d="M118.81,106.99c.01-.26.13-.54.39-.41.22.11.65.11.61.57-.04.51-.05,1.02-.07,1.52-.54.07-.66-.37-.85-.71-.18-.31.1-.66-.09-.98Z"/>
        <path class="cls-59" d="M123.6,79.64c-.14,1.14-.28,2.28-.43,3.42-.29-.18-.36-.49-.46-.78-.05-.3-.05-.61-.03-.91.07-.35.22-.69.33-1.03.06-.28-.09-.62.27-.8.13-.03.24,0,.33.09Z"/>
        <path class="cls-106" d="M145.69,80.35c.09-.19.26-.23.45-.23.48.56.33-.25.55-.25.61.82-.64,1.4-.29,2.19-.2.15-.39.35-.67.18,0-.21.02-.41.02-.62.15-.43.09-.86-.06-1.28Z"/>
        <path class="cls-2" d="M109.46,109.63h1.43c.17.42-.16.58-.39.78-.22.21-.59.13-.78.4-.17-.16-.34-.31-.51-.47-.26-.35-.02-.54.24-.72Z"/>
        <path class="cls-29" d="M165.33,78.6c-.14-.77.39-1.27.74-1.85.13-.09.26-.08.39.02-.1.76-.33,1.45-.96,1.94-.16.11-.21.07-.17-.11Z"/>
        <path class="cls-74" d="M109.73,110.82c-.11-.55.33-.45.62-.53.13-.06.21,0,.24.12-.24.63-.06,1.58-1.15,1.6-.01-.4.36-.57.53-.87.18-.31-.05-.29-.24-.32Z"/>
        <path class="cls-72" d="M76.84,72.71c.25-.51.89-.05,1.17-.46.62.14,1.05.44.99,1.16-.16.13-.32.15-.48-.01-.34-.77-1.01-.73-1.68-.68Z"/>
        <path class="cls-17" d="M103.34,109.36c.6,0,1.2.02,1.81.03.06.06.07.12.05.17-.02.06-.04.08-.06.08-1.02-.23-1.72.05-1.88,1.19-.1.12-.19.12-.27-.02.12-.49.24-.98.35-1.46Z"/>
        <path d="M119.05,107.98c.23.23.47.46.7.69.24.45.5-.02.75.02,0,.08,0,.17,0,.25.09.45-.32.29-.5.42-.06.05-.13.07-.2.07-.34.18-.56-.03-.78-.23l.03-.04c-.15-.39-.33-.78,0-1.17Z"/>
        <path class="cls-88" d="M126.73,110.83c.08-.08.15-.18.24-.25.25-.19.22.03.21.16-.03.49-.12.97-.49,1.34-.13.06-.27.13-.4.19-.08.11-.16.12-.24,0,.15-.52.33-1.02.68-1.44Z"/>
        <path class="cls-83" d="M59.99,74.57c.02.38.1.77-.38,1.27-.05-1.17-.2-2.16-.04-3.17.42.57-.1,1.35.42,1.9Z"/>
        <path class="cls-87" d="M105.31,113.5c.28-.31-.56-.7.07-.99-.12.59.41.56.71.75.25.28.84-.2.95.41-.62.43-1.18.15-1.73-.17Z"/>
        <path class="cls-48" d="M123.83,109.12c.11.75.14,1.48-.21,2.18-.2-.03-.62.04-.43-.31.33-.6.19-1.34.64-1.88Z"/>
        <path class="cls-69" d="M85.01,83.3c-.08-.1-.17-.2-.25-.3.03-.59.41-1.03.67-1.52.17.04.19.21.28.32-.13.55-.04,1.2-.7,1.5Z"/>
        <path class="cls-42" d="M100.56,98.34c.76-.42,1.59-.34,2.41-.27-.07.82-.71.33-1.06.4-.42.09-.9-.08-1.35-.13Z"/>
        <path class="cls-46" d="M78.55,83.02c.02-.38.04-.76.44-.96,0,1.04,0,2.07,0,3.11-.59-.62.06-1.5-.44-2.14Z"/>
        <path class="cls-79" d="M128.93,80.13c0-.26-.07-.65.28-.67.43-.02.26.4.24.62-.1.77.01,1.56-.27,2.31-.19-.74.2-1.55-.24-2.27Z"/>
        <path d="M119.05,107.98c0,.39,0,.78,0,1.17-.52-.67-.69-1.39-.24-2.17.41.25.15.67.24.99Z"/>
        <path class="cls-80" d="M138.48,83.67c-.01-.18-.06-.35-.24-.44-.24-.68.11-1.03.7-1.25.04.23.09.46.33.57-.1.49-.34.88-.79,1.12Z"/>
        <path class="cls-52" d="M124.28,87.84c-.79-.06-1.15-.41-.86-1.22.06-.11.14-.12.22-.02.45.29.35.87.63,1.24Z"/>
        <path class="cls-16" d="M126.94,43.6c-.09-.2-.51-.46-.34-.5.8-.2.37-1.04.81-1.38.11.69.15,1.37-.48,1.88Z"/>
        <path class="cls-107" d="M100.12,70.27c.39-.07.45.33.68.48,0,.48.02.97.03,1.45-.17,0-.34,0-.51-.01-.36-.4-.08-.9-.2-1.34,0-.19-.16-.39,0-.58Z"/>
        <path class="cls-28" d="M114.7,111.37c-.13.53.61.83.35,1.39-.52,0-.51-.74-1.04-.74.09-.36-.03-.95.69-.65Z"/>
        <path class="cls-24" d="M124.85,49.92c-.06-.75-.15-1.5.63-1.98.04.74-.35,1.34-.63,1.98Z"/>
        <path class="cls-81" d="M85.96,81.1c-.66-.67-.08-1.15.24-1.67l-.02-.02c.42.63.18,1.16-.24,1.67l.02.03Z"/>
        <path class="cls-17" d="M107.04,113.67c-.23-.34-.73-.04-.95-.41.68.04,1.32-.04,1.78-.72-.08.57-.24,1.01-.84,1.13Z"/>
        <path class="cls-15" d="M131.04,90.93c-.81-.65-.33-1.3,0-1.95.05.65.3,1.3,0,1.95Z"/>
        <path class="cls-56" d="M146.94,73.15c.1.97-.5.16-.73.29-.07-.59-.13-1.18.2-1.72.05.52-.13,1.13.53,1.43Z"/>
        <path class="cls-55" d="M145.69,80.35c.42.41,1.04.8.06,1.28-.1-.1-.19-.2-.29-.3.08-.32.15-.65.23-.97Z"/>
        <path class="cls-34" d="M122.95,82.29c.08.26.15.52.23.78,0,.7-.02,1.39-.02,2.09-.06.02-.12.05-.18.07-.12-.06-.2-.15-.25-.28-.11-.51-.04-1.03-.06-1.55.04-.38-.12-.82.29-1.1Z"/>
        <path class="cls-47" d="M114.7,111.37c-.41.03-.6.28-.69.65-.23-.68.2-1.18.46-1.72.08.36.15.72.23,1.07Z"/>
        <path class="cls-39" d="M148.53,70.2c.04.22.07.45.3.57,0,.48-.17.89-.45,1.27-.1-.11-.2-.22-.3-.33-.15-.48.02-.92.15-1.37.07-.11.17-.16.3-.15Z"/>
        <path class="cls-47" d="M110.83,113.51c.09-.03.18-.06.27-.1.11-.06.16-.21.3-.24.35.03.71.08,1.06.09.21,0,.44-.02.38.27-.04.22-.28.24-.49.22-.26-.06-.51-.05-.77,0-.29.03-.54-.08-.77-.24Z"/>
        <path class="cls-32" d="M135.61,81.36c.18-.24.43-.34.44.05,0,.47-.15.93-.24,1.4-.27-.46-.13-.97-.2-1.45Z"/>
        <path class="cls-103" d="M105.14,109.65c0-.09,0-.17,0-.26.07-.02.14-.04.2-.07.58.09.39.46.29.8-.26.37-.64.2-.97.23.16-.23.32-.46.48-.69Z"/>
        <path class="cls-43" d="M120.44,85.39c.15.04.29.09.31.28.03.39-.21.67-.42.95-.1.12-.2.12-.28-.02-.09-.47.09-.86.39-1.21Z"/>
        <path class="cls-73" d="M120.05,86.6c.09,0,.19.01.28.02-.02.46-.18.85-.57,1.13-.13-.06-.27-.12-.4-.18,0-.48.44-.66.69-.97Z"/>
        <path class="cls-52" d="M109.69,82.74c.07.35-.04.6-.42.76,0-.6-.2-1.18.15-1.72.15.3-.1.72.27.96Z"/>
        <path class="cls-21" d="M106.32,111.05c.24-.48.49-.96.73-1.43.66.94-.05,1.18-.73,1.43Z"/>
        <path class="cls-53" d="M131.51,113.66c-.12-.22-.28-.42-.19-.7.51.17.48-.43.9-.58-.19.5-.17,1.02-.7,1.28Z"/>
        <path class="cls-45" d="M123.85,76.51c.08-.66.44-.34.74-.22-.09.43-.15.87-.47,1.21-.04-.03-.08-.06-.13-.09-.25-.27.05-.62-.15-.9Z"/>
        <path class="cls-82" d="M166.46,76.77c-.13,0-.26-.01-.39-.02.02-.34-.06-.72.33-.91.06-.03.22.08.27.16.2.32.11.59-.21.77Z"/>
        <path class="cls-23" d="M87.89,98.14c.48,0,.96,0,1.44,0-.19.47-.56.52-.99.43-.11-.18-.6.03-.45-.43Z"/>
        <path class="cls-95" d="M86.71,76.79c-.04-.31-.1-.64.37-.73.19.51.11.98-.14,1.44-.27-.18-.04-.51-.22-.71Z"/>
        <path class="cls-11" d="M104.64,110.33c-.06.36.15.75-.08,1.1,0,.01-.06.01-.07,0-.03-.02-.05-.06-.07-.09.29-.29-1.28-.99.22-1.01Z"/>
        <path class="cls-93" d="M119.02,109.19c.26.08.52.16.78.23-.57.22-.38.87-.7,1.23-.16-.03-.18-.18-.24-.29.13-.38.23-.76.16-1.17Z"/>
        <path class="cls-35" d="M122.24,96.97c-.75.35-1.49.15-2.23-.04.75-.15,1.49-.04,2.23.04Z"/>
        <path class="cls-6" d="M123.65,86.59h-.11s-.11.02-.11.02c-.24-.1-.28-.31-.29-.54-.26-.31-.24-.61,0-.92h.02c.51.35.32.96.5,1.43Z"/>
        <path class="cls-65" d="M86.71,76.79c.26.18.08.5.22.71-.02.34-.04.69-.24.98-.2-.12-.09-.37-.21-.52.08-.39.16-.78.24-1.17Z"/>
        <path d="M86.47,77.97c.07.17.14.35.21.52-.04.38.14.87-.51.91,0,0,.02.02.02.02-.09-.52.15-.98.27-1.46Z"/>
        <path class="cls-37" d="M124.13,77.51c.03.42-.11.8-.28,1.17-.13.08-.23.06-.32-.06-.06-.12-.08-.24-.06-.37.17-.29-.23-1.05.64-.76l.03.02Z"/>
        <path class="cls-19" d="M102.99,110.83c.09,0,.18.01.27.02-.15.44-.11,1-.68,1.2,0,0,.03.01.03.01-.16-.5.24-.83.38-1.23Z"/>
        <path class="cls-49" d="M78.53,73.39c.16,0,.32,0,.48.01,0,0-.02-.02-.02-.02.34.32-.2.64,0,.96-.18.31-.36.26-.42-.05-.06-.29-.03-.61-.04-.91Z"/>
        <path class="cls-60" d="M126.42,45.07c-.04-.27-.03-.54-.3-.72-.15-.1-.1-.31.04-.38.15-.07.3,0,.33.2.16.32.49.65-.08.91Z"/>
        <path class="cls-1" d="M122.5,113l-.37-.04c.28-.4.57-.8.85-1.21,0,.51-.02.98-.48,1.25Z"/>
        <path class="cls-69" d="M117.61,113.19c-.1-.08-.2-.16-.3-.24.27-.31.53-.61.8-.92.22-.05.35,0,.25.26-.15.38-.42.67-.75.9Z"/>
        <path class="cls-14" d="M116.64,110.8c-.07-.07-.15-.14-.22-.21-.11-.56.29-.78.67-1.03.11-.02.22,0,.31.08,0,.56-.49.78-.76,1.16Z"/>
        <path class="cls-5" d="M109.72,48.71c-.31-.56-.29-1.01.41-1.24-.17.4-.09.89-.41,1.24Z"/>
        <path class="cls-40" d="M87.89,98.14c.15.14.3.28.45.43-.55,0-1.1,0-1.66.01.19-.4.74-.05.94-.45.09,0,.18,0,.27,0Z"/>
        <path class="cls-76" d="M117.4,109.64l-.1-.04h-.1c-.29-.41-.04-.75.16-1.11,0-.09.01-.18.02-.27.53.47.4.94.02,1.42Z"/>
        <path class="cls-48" d="M123.62,111.3c.35.52.2,1.1.25,1.66-.42-.5-.29-1.09-.25-1.66Z"/>
        <path class="cls-85" d="M111.34,43.61c.28-.34-.62-1.19.51-1.17-.16.39-.16.86-.51,1.17Z"/>
        <path class="cls-20" d="M124.83,75.81c-.03-.15-.02-.33-.09-.45-.09-.14-.39-.21-.17-.42.06-.06.32.09.49.15.07.29.02.54-.23.72Z"/>
        <path class="cls-48" d="M120.01,109.36c.17-.14.33-.28.5-.42.38.31.3.62,0,.93-.17-.17-.33-.34-.5-.51Z"/>
        <path class="cls-102" d="M145.73,82.25c.22-.06.45-.12.67-.18.06.52-.57.55-.67.96v-.78Z"/>
        <path class="cls-22" d="M109.46,109.63c-.08.24-.16.48-.24.72-.14-.02-.39.48-.41-.06,0-.3.11-.6.17-.89.16.08.32.16.48.24Z"/>
        <path class="cls-107" d="M126.05,112.27c.08,0,.16,0,.24,0-.01.31-.12.56-.4.73-.34-.03-.62-.1-.56-.54.34.34.53.06.72-.19Z"/>
        <path class="cls-26" d="M68.68,77.24c.07-.44-.42-1.08.45-1.23.12.51-.26.83-.45,1.23Z"/>
        <path class="cls-20" d="M112.09,110.81c.11-.34.13-.73.48-.95.16.48.34.97-.48.95Z"/>
        <path class="cls-13" d="M150.52,64.59c0-.52,0-1.03,0-1.55.21.52.17,1.03,0,1.55Z"/>
        <path class="cls-88" d="M118.87,110.36c.08.1.16.2.24.29-.04.35-.06.71-.58.59l.02.02c.1-.3.21-.6.31-.91Z"/>
        <path class="cls-69" d="M111.6,113.74c.26-.35.52-.31.77,0-.26.16-.51.18-.77,0Z"/>
        <path class="cls-7" d="M152.41,82.56c-.03-.31-.16-.63.15-.9.33.45-.01.91.06,1.36-.22-.08-.29-.24-.21-.45Z"/>
        <path d="M165.14,79.48c-.04-.28-.25-.3-.46-.33.09-.33.32-.5.65-.55.01.1.07.14.17.11-.01.3-.12.56-.35.76Z"/>
        <path class="cls-31" d="M104.89,38.84c.07.21.15.42.22.63.04.14.11.33-.07.37-.09.02-.22-.15-.33-.24-.05-.28-.1-.57.19-.76Z"/>
        <path class="cls-61" d="M80.66,77.48c.06.08.12.16.18.24.01.16.03.33.04.49-.49-.12-.57-.36-.22-.73Z"/>
        <path class="cls-98" d="M118.36,112.29c-.08-.09-.16-.17-.25-.26.15-.25.3-.51.45-.77,0,0-.02-.02-.03-.02.12.38.21.75-.17,1.04Z"/>
        <path class="cls-18" d="M123.68,78.67c.06,0,.11,0,.17,0-.08.32-.16.64-.25.96-.1-.01-.2-.03-.3-.04-.1-.15-.12-.32-.09-.49.09-.21.2-.42.47-.44Z"/>
        <path class="cls-69" d="M111.41,113.17c-.1.08-.2.16-.3.24-.06-.22-.69-.28-.18-.66.16.14.32.28.48.42Z"/>
        <path class="cls-57" d="M85.71,81.8c-.09-.11-.19-.21-.28-.32.05-.31.07-.64.53-.39,0,0-.03-.02-.02-.03.1.3-.06.52-.23.73Z"/>
        <path class="cls-18" d="M78.98,74.35c-.57-.32.47-.64,0-.96.35.32.1.64,0,.96Z"/>
        <path class="cls-108" d="M98.9,73.64c-.45.82-.28,1.71-.13,2.52.3,1.64.23,3.29.38,4.92.07.75-.19.98-.91.99-1.16.02-2.31.14-3.46.2-.66.03-.98-.08-.78-.95.88-3.97,2.24-7.78,3.53-11.62.38-1.12.69-2.26,1.1-3.63.48,1.54.11,2.89.29,4.21-.2.89-.16,1.78-.03,2.68h0c.24.22.21.45.02.69Z"/>
        <path class="cls-97" d="M98.88,72.95c-.25-.89-.34-1.79.03-2.68,0,.89-.02,1.78-.03,2.68Z"/>
        <path class="cls-17" d="M99.39,72.44c.16,0,.32,0,.49,0,.08-.12.16-.11.24,0,.02.41.21.9-.48.94-.47-.22-.44-.56-.24-.95Z"/>
        <path class="cls-97" d="M99.39,72.44c-.03.34.04.66.24.95-.17.28-.45.27-.73.25,0-.23-.02-.46-.02-.69.35,0,.07-.61.51-.51Z"/>
        <path class="cls-99" d="M100.11,72.45h-.12s-.12,0-.12,0c.05-.73-.23-1.5.25-2.17.07.17.13.34.2.51-.16.48,0,1.01-.21,1.49.04.06.04.12,0,.17Z"/>
        <path class="cls-63" d="M100.12,72.27c.04-.5-.25-1.05.21-1.49.38.47-.08.94,0,1.4-.07.03-.13.06-.2.09Z"/>
        <path class="cls-66" d="M129.2,91.41c.03,2.73.53,5.33.17,7.97-.06.41,0,1.02-.51,1.03-.53.01-.72-.57-.81-1.05-.34-2.03-.3-4.06.35-6.02.2-.61.02-1.39.79-1.94Z"/>
        <path class="cls-23" d="M129.62,78.45c-.28-.27-.38-.58-.14-1,.44.29.5.59.12.97l.02.02Z"/>
        <path class="cls-96" d="M129.6,78.43c.07.23.07.46-.11.64-.03.02-.25-.07-.26-.13-.03-.27-.05-.58.39-.49,0,0-.02-.02-.02-.02Z"/>
        <path class="cls-108" d="M155.5,75.35c.02,1.54,0,3.09.54,4.58.54,1.47,1.61,2.27,3.11,2.54.42.08.79.04.68.66-.23,1.38-.51,2.74-1.31,3.93-.41.61-.92,1-1.69.85-.7-.14-1.11-.42-1.52-1.2-1.43-2.72-1.48-5.58-1.2-8.48.1-1.02.24-2.16,1.14-2.94.11-.09.18-.07.23.06Z"/>
        <path class="cls-108" d="M160.05,78.66c-.06.99-.16,1.66-.12,2.32.05.92-.42.98-1.1.78-.19-.06-.36-.16-.54-.25-2.5-1.34-3.02-6.89-.81-8.68.86-.69,1.84-.36,2.13.84.42,1.74.61,3.52.45,4.99Z"/>
        <path class="cls-44" d="M155.5,75.35c-.08-.02-.16-.04-.23-.06-.04-.41.01-.79.4-1.07.13.41.11.79-.16,1.12Z"/>
        <path class="cls-91" d="M138.94,81.99c-.41.32-.52.8-.7,1.25-.14.12-.29.34-.42.33-.26-.02-.16-.3-.17-.47-.05-1.97.19-3.91.62-5.83.15-.25-.06-.53.06-.79.09-.31.14-.64.24-.95.15-.36.31-.72.59-1,.1-.21.23-.41.31-.63.19-.49.23-1.31.9-1.16.52.12.47.92.53,1.46.28,2.83-.65,5.34-1.95,7.77Z"/>
        <path class="cls-35" d="M139.16,74.53c.05.45-.12.82-.38,1.16-.28.05-.38-.14-.47-.35,0-.4.17-.75.42-1.03.32-.36.27.17.43.22Z"/>
        <path class="cls-3" d="M138.54,76.52c-.11.24-.01.56-.27.75-.08-.08-.15-.17-.23-.25-.15,0-.16-.15-.25-.22.04-.26-.12-.58.22-.75.52-.21.62.03.52.48Z"/>
        <path class="cls-42" d="M138.54,76.52c-.01-.33-.08-.61-.52-.48.1-.23.19-.46.29-.7.16.12.31.23.47.35-.06.28.04.61-.24.83Z"/>
        <path class="cls-41" d="M137.8,76.79c.08.07.17.15.25.22-.04.26-.09.52-.15.87-.22-.42-.12-.76-.1-1.09Z"/>
        <path class="cls-68" d="M148.53,70.2c-.07.03-.13.07-.18.11-.1.07-.19.06-.28-.02.13-2.2.61-4.33,1.2-6.45.11-.39.09-.91.7-.96.31.54.16,1.09.08,1.65l-1.52,5.67Z"/>
        <path class="cls-27" d="M146.69,79.87c-.05.19-.09.39-.14.58-.14-.11-.28-.22-.41-.33.1-.63.2-1.26.3-1.89.61.04.23.46.28.71,0,.31-.02.62-.02.92Z"/>
        <path class="cls-95" d="M148.07,70.29c.09,0,.18.01.28.02.12.51-.2.93-.27,1.41-.34-.47-.34-.95,0-1.43Z"/>
        <path class="cls-13" d="M150.04,64.53c-.05-.55.17-1.11-.08-1.65.09-.01.18-.02.28-.04-.04.56.2,1.16-.2,1.68Z"/>
        <path class="cls-48" d="M146.71,78.95c-.08-.24.01-.55-.28-.71.07-.11.13-.21.2-.32.09.01.18.02.27.04-.05.33.09.71-.19,1Z"/>
        <path class="cls-70" d="M122.95,82.29c-.03.4-.06.8-.09,1.2-.28.25.25.84-.4.94-.15-.87-.13-1.74-.02-2.62.19-.11-.05-.61.42-.46.03.31.06.63.08.94Z"/>
        <path class="cls-64" d="M124.1,77.49c-.64.08-.4.63-.52.98-.1.15-.17.34-.41.22.14-.75.28-1.51.69-2.17.41.24.15.65.24.97Z"/>
        <path class="cls-77" d="M122.46,84.43c.13-.31.26-.63.4-.94.03.55.06,1.1.09,1.66.05.24.18.54-.28.49l-.21-1.2Z"/>
        <path class="cls-84" d="M122.86,81.35c-.14.15-.28.31-.42.46.07-.5.03-1.04.41-1.45.07-.1.14-.1.22-.01-.07.34-.14.67-.21,1.01Z"/>
        <path class="cls-12" d="M122.67,85.62c.27-.06.2-.32.28-.49.06,0,.12,0,.18.02,0,.31,0,.61,0,.92-.34.04-.49-.11-.46-.45Z"/>
        <path class="cls-50" d="M123.16,78.69c.14-.07.28-.14.41-.22.03.07.06.13.1.2-.12.17-.24.35-.36.52-.08.17-.19.28-.4.21.08-.24.16-.48.24-.71Z"/>
        <path class="cls-77" d="M122.92,79.4c.13-.07.27-.14.4-.21,0,.14-.02.27-.03.41-.07.25-.15.49-.22.74h-.11s-.11.01-.11.01c.02-.32.04-.63.06-.95Z"/>
        <path class="cls-62" d="M95.34,107.77c.39-.59.75-1.2,1.17-1.76.26-.35.51-.48.72.11.65,1.82-.25,4.19-1.93,4.94-.46-1.1-.11-2.19.04-3.29Z"/>
        <path class="cls-86" d="M117.36,108.49c-.05.37-.11.75-.16,1.12-.26.33-.52.65-.78.98-.5-.75-.13-1.59.94-2.1Z"/>
        <path class="cls-44" d="M105.64,110.12c-.04-.28.09-.63-.29-.8.01-.1.02-.19.03-.29,1.01.15.72.6.25,1.09Z"/>
        <path class="cls-71" d="M111.13,109.57c-.04-.53.45-.48.73-.67.02.55-.46.83-.7,1.25-.19-.18-.17-.37-.03-.58Z"/>
        <path class="cls-94" d="M111.13,109.57c.01.19.02.38.03.58-.1.3-.29.39-.58.26-.08-.04-.16-.08-.24-.12.18-.21.36-.43.54-.64.08-.02.16-.05.24-.07Z"/>
      </g>
    </g>
  </g>
</svg>